HIERARCHY
ROOT SpineBase
{
  OFFSET 0.000000 0.000000 0.000000
  CHANNELS 6 Xposition Yposition Zposition Zrotation Xrotation Yrotation
  JOINT SpineMid
  {
    OFFSET 0.000000 28.839060 0.000000
    CHANNELS 3 Zrotation Xrotation Yrotation
    JOINT SpineShoulder
    {
      OFFSET -0.025043 21.484020 -0.672098
      CHANNELS 3 Zrotation Xrotation Yrotation
      JOINT Neck
      {
        OFFSET -0.020276 7.127642 -0.522342
        CHANNELS 3 Zrotation Xrotation Yrotation
        JOINT Head
        {
          OFFSET -2.083102 11.643642 -0.829783
          CHANNELS 3 Zrotation Xrotation Yrotation
          End Site
          {
            OFFSET 0 0 0
          }
        }
      }
      JOINT ShoulderLeft
      {
        OFFSET -16.518686 -2.315408 5.037199
        CHANNELS 3 Zrotation Xrotation Yrotation
        JOINT ElbowLeft
        {
          OFFSET -2.734410 -25.308319 1.083230
          CHANNELS 3 Zrotation Xrotation Yrotation
          JOINT WristLeft
          {
            OFFSET -2.704687 -18.100359 -4.260729
            CHANNELS 3 Zrotation Xrotation Yrotation
            JOINT HandLeft
            {
              OFFSET 1.422761 -5.849226 -1.691292
              CHANNELS 3 Zrotation Xrotation Yrotation
              JOINT HandTipLeft
              {
                OFFSET -0.773150 -5.978714 -3.387229
                CHANNELS 3 Zrotation Xrotation Yrotation
                End Site
                {
                  OFFSET 0 0 0
                }
              }
              JOINT ThumbLeft
              {
                OFFSET 3.403601 1.277547 -2.210292
                CHANNELS 3 Zrotation Xrotation Yrotation
                End Site
                {
                  OFFSET 0 0 0
                }
              }
            }
          }
        }
      }
      JOINT ShoulderRight
      {
        OFFSET 15.548964 -1.807431 -5.084414
        CHANNELS 3 Zrotation Xrotation Yrotation
        JOINT ElbowRight
        {
          OFFSET 5.555074 -24.940474 -2.812821
          CHANNELS 3 Zrotation Xrotation Yrotation
          JOINT WristRight
          {
            OFFSET -0.275149 -19.547095 -4.197926
            CHANNELS 3 Zrotation Xrotation Yrotation
            JOINT HandRight
            {
              OFFSET -1.971815 -7.881909 -1.244073
              CHANNELS 3 Zrotation Xrotation Yrotation
              JOINT HandTipRight
              {
                OFFSET 0.040927 -6.500385 -2.100540
                CHANNELS 3 Zrotation Xrotation Yrotation
                End Site
                {
                  OFFSET 0 0 0
                }
              }
              JOINT ThumbRight
              {
                OFFSET -2.770681 -1.787665 -1.357930
                CHANNELS 3 Zrotation Xrotation Yrotation
                End Site
                {
                  OFFSET 0 0 0
                }
              }
            }
          }
        }
      }
    }
  }
  JOINT HipLeft
  {
    OFFSET -6.033437 0.567670 -1.924829
    CHANNELS 3 Zrotation Xrotation Yrotation
    JOINT KneeLeft
    {
      OFFSET -7.385939 -31.271009 4.600266
      CHANNELS 3 Zrotation Xrotation Yrotation
      JOINT AnkleLeft
      {
        OFFSET -1.780350 -34.970613 5.957556
        CHANNELS 3 Zrotation Xrotation Yrotation
        JOINT FootLeft
        {
          OFFSET -3.188458 -4.771622 -4.552001
          CHANNELS 3 Zrotation Xrotation Yrotation
          End Site
          {
            OFFSET 0 0 0
          }
        }
      }
    }
  }
  JOINT HipRight
  {
    OFFSET 5.700979 0.805720 -4.603442
    CHANNELS 3 Zrotation Xrotation Yrotation
    JOINT KneeRight
    {
      OFFSET 5.666867 -34.470558 4.809624
      CHANNELS 3 Zrotation Xrotation Yrotation
      JOINT AnkleRight
      {
        OFFSET 0.578409 -32.293860 7.163514
        CHANNELS 3 Zrotation Xrotation Yrotation
        JOINT FootRight
        {
          OFFSET -2.409297 -5.029938 -10.537902
          CHANNELS 3 Zrotation Xrotation Yrotation
          End Site
          {
            OFFSET 0 0 0
          }
        }
      }
    }
  }
}
MOTION
Frames: 9
Frame Time: 0.033333
18.810919 73.801529 365.768351 -0.000000 0.000000 12.858577 -0.000000 0.000000 -12.858577 -0.000000 0.000000 0.000000 -0.000000 0.000000 0.000000 0.000000 0.000000 0.000000 -0.000000 0.000000 0.000000 -0.000000 0.000000 0.000000 -0.000000 0.000000 0.000000 -0.000000 0.000000 0.000000 0.000000 0.000000 0.000000 0.000000 0.000000 0.000000 -0.000000 0.000000 0.000000 -0.000000 0.000000 0.000000 -0.000000 0.000000 0.000000 -0.000000 0.000000 0.000000 0.000000 0.000000 0.000000 0.000000 0.000000 0.000000 -0.000000 0.000000 -12.858577 -0.000000 0.000000 0.000000 -0.000000 0.000000 0.000000 0.000000 0.000000 0.000000 -0.000000 0.000000 -12.858577 -0.000000 0.000000 0.000000 -0.000000 0.000000 0.000000 0.000000 0.000000 0.000000
18.885153 73.782673 365.728460 0.102227 0.036778 13.008763 -0.107882 -0.012823 -13.008808 -0.000000 0.000000 0.000000 -0.000000 0.000000 0.000000 0.000000 0.000000 0.000000 -0.000000 0.000000 0.000000 -0.000000 0.000000 0.000000 -0.125155 1.049531 0.291933 1.096763 -3.334029 -0.520160 0.000000 0.000000 0.000000 0.000000 0.000000 0.000000 -0.000000 0.000000 0.000000 -0.000000 0.000000 0.000000 -0.000000 0.000000 0.000000 -0.745830 -1.154958 0.226970 0.000000 0.000000 0.000000 0.000000 0.000000 0.000000 -0.107882 -0.012823 -13.008808 -0.000000 0.000000 0.000000 0.756910 12.628930 -8.411492 0.000000 0.000000 0.000000 -0.107882 -0.012823 -13.008808 -0.000000 0.000000 0.000000 0.941786 -0.434919 -1.782268 0.000000 0.000000 0.000000
18.952077 73.765938 365.693868 0.188946 0.067484 13.147106 -0.199343 -0.022739 -13.147257 -0.000000 0.000000 0.000000 -0.000000 0.000000 0.000000 0.000000 0.000000 0.000000 -0.000000 0.000000 0.000000 -0.000000 0.000000 0.000000 -0.193330 1.984422 0.539502 2.041108 -6.295555 -0.930404 0.000000 0.000000 0.000000 0.000000 0.000000 0.000000 -0.000000 0.000000 0.000000 -0.000000 0.000000 0.000000 1.256580 -0.291823 -0.122525 -2.674602 -1.843333 0.558497 0.000000 0.000000 0.000000 0.000000 0.000000 0.000000 -0.199343 -0.022739 -13.147257 -0.000000 0.000000 0.000000 2.060578 19.375794 -13.312374 0.000000 0.000000 0.000000 -0.199343 -0.022739 -13.147257 -0.000000 0.000000 0.000000 1.728505 -1.443168 -3.008951 0.000000 0.000000 0.000000
19.011691 73.751323 365.664575 0.260165 0.092120 13.273626 -0.274365 -0.029924 -13.273907 -0.000000 0.000000 0.000000 -0.000000 0.000000 0.000000 0.000000 0.000000 0.000000 -0.714611 -0.569864 0.027406 0.714919 0.569477 -0.034513 -0.202931 2.801643 0.740319 2.841392 -8.859582 -1.250258 0.000000 0.000000 0.000000 0.000000 0.000000 0.000000 -0.000000 0.000000 0.000000 -0.000000 0.000000 0.000000 1.787757 -0.344477 -0.191486 -3.807737 -2.587393 0.804996 0.000000 0.000000 0.000000 0.000000 0.000000 0.000000 -1.187510 0.055820 -13.377321 0.908207 0.127848 0.102608 3.157724 23.088288 -16.293424 0.000000 0.000000 0.000000 -0.542787 0.788825 -13.213845 0.448502 -0.735699 -0.055405 2.367999 -3.047302 -3.679036 0.000000 0.000000 0.000000
19.063996 73.738828 365.640581 0.315889 0.110689 13.388337 -0.332934 -0.034535 -13.388743 -0.000000 0.000000 0.000000 -0.554129 -0.608926 -0.151449 0.000000 0.000000 0.000000 -0.897612 -0.700571 0.031751 0.898068 0.699987 -0.042724 -0.153187 3.499469 0.892832 3.503922 -11.010117 -1.497473 0.000000 0.000000 0.000000 0.000000 0.000000 0.000000 -0.000000 0.000000 0.000000 -0.000000 0.000000 0.000000 2.239560 -0.331386 -0.265574 -4.790749 -3.211807 1.029041 0.000000 0.000000 0.000000 0.000000 0.000000 0.000000 -1.422882 0.067199 -13.511351 1.083553 0.155731 0.121446 3.954141 25.099846 -18.093967 0.000000 0.000000 0.000000 -0.595916 1.002595 -13.299700 0.494573 -0.948795 -0.082726 2.879858 -5.299300 -3.771056 0.000000 0.000000 0.000000
19.108992 73.728454 365.621885 0.356125 0.123192 13.491254 -0.375038 -0.036708 -13.491757 -0.000000 0.000000 0.000000 -0.584944 -0.774509 -0.184285 0.000000 0.000000 0.000000 -1.052966 -0.801574 0.034127 1.881370 0.852380 -0.263656 -0.886075 4.021879 1.199256 4.033391 -12.738709 -1.687951 0.000000 0.000000 0.000000 0.000000 0.000000 0.000000 -0.000000 0.000000 0.000000 -0.000000 0.000000 0.000000 2.604221 -0.252617 -0.344256 -5.616670 -3.713724 1.230247 0.000000 0.000000 0.000000 0.000000 0.000000 0.000000 -1.572756 0.073165 -13.625361 1.189896 0.175364 0.132165 4.475110 26.008884 -19.072722 0.000000 0.000000 0.000000 -0.582560 1.192208 -13.369066 0.486131 -1.147607 -0.115729 3.299199 -8.280208 -3.236674 0.000000 0.000000 0.000000
19.149174 73.722447 365.604982 0.388720 0.129072 13.601875 -0.408172 -0.034033 -13.602434 -0.000000 0.000000 0.000000 -0.633030 -0.971859 -0.224442 0.000000 0.000000 0.000000 -1.198753 -0.895957 0.036069 2.183726 0.970116 -0.314135 -0.975729 3.814691 1.173826 4.773778 -13.402158 -1.848019 0.000000 0.000000 0.000000 0.000000 0.000000 0.000000 -0.000000 0.000000 0.000000 -0.000000 0.000000 0.000000 3.054687 -0.474120 -0.353599 -6.066187 -3.851890 1.254671 0.000000 0.000000 0.000000 0.000000 0.000000 0.000000 -1.623973 0.066082 -13.734488 1.204809 0.191399 0.130382 4.243749 22.126980 -16.963110 0.000000 0.000000 0.000000 -0.376972 1.497712 -13.402437 0.324761 -1.497254 -0.196152 3.529115 -14.898722 0.340882 0.000000 0.000000 0.000000
19.172630 73.715749 365.600849 0.387871 0.123105 13.687747 -0.405986 -0.027825 -13.688262 -0.000000 0.000000 0.000000 -0.574603 -1.166852 -0.255606 0.000000 0.000000 0.000000 -1.295263 -0.946079 0.036028 2.475480 0.869236 -0.343047 -0.909471 4.980389 1.351908 5.760031 -14.796702 -2.417573 0.000000 0.000000 0.000000 0.000000 0.000000 0.000000 -0.000000 0.000000 0.000000 -0.000000 0.000000 0.000000 3.259195 -0.279181 -0.440081 -6.012083 -2.690373 1.281944 0.000000 0.000000 0.000000 0.000000 0.000000 0.000000 -1.562996 0.045581 -13.807879 0.539369 -0.665449 0.056860 5.027843 21.975351 -16.655760 0.000000 0.000000 0.000000 -0.225786 1.594809 -13.453135 0.202280 -1.620030 -0.234731 6.721979 -27.387530 1.982475 0.000000 0.000000 0.000000
19.178603 73.711732 365.604245 0.335413 0.107710 13.743028 -0.351399 -0.024942 -13.743420 -0.000000 0.000000 0.000000 -0.290177 -1.363654 -0.268002 0.000000 0.000000 0.000000 -1.379947 -0.992854 0.036190 2.593690 0.847703 -0.344295 -0.348155 5.255443 1.199374 5.564060 -14.740359 -2.495069 0.000000 0.000000 0.000000 0.000000 0.000000 0.000000 -0.000000 0.000000 0.000000 -0.000000 0.000000 0.000000 3.785643 -0.072277 -0.582135 -7.276781 -1.224981 1.677990 0.000000 0.000000 0.000000 0.000000 0.000000 0.000000 -1.384310 0.041069 -13.850121 0.429593 -0.711640 0.047454 5.096032 21.664366 -16.577903 0.000000 0.000000 0.000000 -0.369183 1.160841 -13.596023 0.296075 -1.148368 -0.144254 7.491819 -30.698065 3.575244 0.000000 0.000000 0.000000
